<svg xmlns="http://www.w3.org/2000/svg" version="1.1" xmlns:xlink="http://www.w3.org/1999/xlink" xmlns:svgjs="http://svgjs.dev/svgjs" width="2000" height="1500" viewBox="0 0 2000 1500"><rect width="2000" height="1500" fill="#000000"></rect><g transform="matrix(0.75,0,0,0.75,251.04375056687286,125.00647773279343)"><svg viewBox="0 0 296 247" data-background-color="#f9f9f9" preserveAspectRatio="xMidYMid meet" height="1668" width="2000" xmlns="http://www.w3.org/2000/svg" xmlns:xlink="http://www.w3.org/1999/xlink"><g id="tight-bounds" transform="matrix(1,0,0,1,-0.20596677852958578,-0.09999999999999432)"><svg viewBox="0 0 296.41193355705917 247.2" height="247.2" width="296.41193355705917"><g><svg viewBox="0 0 395.52 329.85360213636204" height="247.2" width="296.41193355705917"><g transform="matrix(1,0,0,1,0,203.86275919048802)"><svg viewBox="0 0 395.52 125.990842945874" height="125.990842945874" width="395.52"><g id="textblocktransform"><svg viewBox="0 0 395.52 125.990842945874" height="125.990842945874" width="395.52" id="textblock"><g><svg viewBox="0 0 395.52 125.990842945874" height="125.990842945874" width="395.52"><g transform="matrix(1,0,0,1,0,0)"><svg width="395.52" viewBox="3 -35.4 112.69 35.9" height="125.990842945874" data-palette-color="#030303"><path d="M30.95 0L4 0 3-3 4-8 4-35.4 28.75-35.4 31.25-33.9 27.95-26.9 23.45-27.4 13-27.4 13-21.9 26.45-21.9 26.45-14.15 20.55-14.15 13-14.65 13-8 27.95-8 33.9-3.2 30.95 0ZM46.45 0L37.45 0 37.4-27.4 36.4-32.4 37.45-35.4 46.45-35.4 46.45 0ZM61.5 0L52.5 0 52.45-27.4 51.45-32.4 52.5-35.4 61.5-35.4 61.5 0ZM78.99 0.5L78.99 0.5Q75.14 0.5 72.14-0.65 69.14-1.8 67.44-4.5 65.74-7.2 65.74-11.8L65.74-11.8Q65.74-15.1 66.87-17.45 67.99-19.8 69.89-21.28 71.79-22.75 74.14-23.43 76.49-24.1 78.99-24.1L78.99-24.1Q83.29-24.1 85.62-23.25 87.94-22.4 88.69-21.9L88.69-21.9 91.19-13.95 90.19-10.85 74.69-10.85Q75.04-9 76.54-7.75 78.04-6.5 81.49-6.5L81.49-6.5Q84.19-6.5 86.14-7.1 88.09-7.7 89.19-8.15L89.19-8.15 89.19-1.45Q87.69-0.65 84.87-0.08 82.04 0.5 78.99 0.5ZM74.74-14.05L74.74-14.05 81.64-15.05 81.19-17.2Q80.84-17.4 80.17-17.5 79.49-17.6 78.99-17.6L78.99-17.6Q77.59-17.6 76.67-17 75.74-16.4 75.27-15.58 74.79-14.75 74.74-14.05ZM104.34 0L95.44 0 95.44-15.65 94.39-20.65 95.44-23.65 102.24-23.65 103.24-22.5Q103.24-22.5 103.94-22.93 104.64-23.35 105.92-23.75 107.19-24.15 108.89-24.15L108.89-24.15Q109.89-24.15 110.89-24 111.89-23.85 112.44-23.6L112.44-23.6 115.69-20.85 112.44-14.45 105.84-17.2 104.34-16.7 104.34 0Z" opacity="1" transform="matrix(1,0,0,1,0,0)" fill="#ffffff" class="wordmark-text-0" data-fill-palette-color="primary" id="text-0"></path></svg></g></svg></g></svg></g></svg></g><g transform="matrix(1,0,0,1,112.98303213671126,0)"><svg viewBox="0 0 169.55393572657746 174.11934495119786" height="174.11934495119786" width="169.55393572657746"><g><svg version="1.1" xmlns="http://www.w3.org/2000/svg" xmlns:xlink="http://www.w3.org/1999/xlink" x="0" y="0" viewBox="1.311 0 97.37800000000001 100" enable-background="new 1.311 0 97.376 100" xml:space="preserve" width="169.55393572657746" height="174.11934495119786" class="icon-icon-0" data-fill-palette-color="accent" id="icon-0"><polygon points="17.788,82.432 17.788,67.929 24.324,64.704 30.771,67.929 37.219,64.704 43.665,67.929 49.982,64.704 	56.442,67.929 62.862,64.704 69.285,67.929 75.704,64.704 82.213,67.929 82.213,82.432 62.351,100 38.289,100 " fill="#ffffff" data-fill-palette-color="accent"></polygon><path d="M95.743 11.83l-14.146 3.304-2.133 11.559-10.303 2.8c-5.353-4.062-11.977-6.467-19.148-6.467-7.175 0-13.8 2.407-19.153 6.474l-10.325-2.806-2.131-11.559L4.257 11.83 1.311 0v14.821l12.619 3.625 2.131 11.558 9.234 4.877c-4.665 5.725-7.477 13.091-7.477 21.132v6.025l6.54-3.225 6.446 3.225 6.447-3.225 6.448 3.225 6.316-3.225 6.462 3.225 6.42-3.225 6.419 3.225 6.421-3.225 6.473 3.225v-6.025c0-8.046-2.815-15.416-7.485-21.14l9.215-4.869 2.133-11.558 12.616-3.625V0L95.743 11.83zM33.146 52.724c-4.145 0-7.507-3.361-7.507-7.508 0-4.145 3.362-7.507 7.507-7.507 4.146 0 7.507 3.362 7.507 7.507C40.652 49.362 37.292 52.724 33.146 52.724zM66.885 52.724c-4.147 0-7.509-3.361-7.509-7.508 0-4.145 3.361-7.507 7.509-7.507 4.145 0 7.505 3.362 7.505 7.507C74.39 49.362 71.029 52.724 66.885 52.724z" fill="#ffffff" data-fill-palette-color="accent"></path></svg></g></svg></g><g></g></svg></g><defs></defs></svg><rect width="296.41193355705917" height="247.2" fill="none" stroke="none" visibility="hidden"></rect></g></svg></g></svg>